# Export of Level 2
# from Aaro4130 OBJ Exporter v2.0
v 35.19189 164 136.9261
v -35.19189 167 140.4834
v -33.30603 189.0574 110.7814
v 35.56903 182.9063 108.0477
v -35.91003 138 152.8005
v 33.03729 131 159.0808
v -31.60083 209 53.02686
v 35.9101 200 51.80042
v 33.75549 201 -50.19934
v -33.03723 207 -55.19946
v -34.92004 -209 159.0806
v 34.91998 -209 159.0806
v 34.7785 186.2805 -105.485
v -33.3783 189.9063 -110.6183
v 35.9101 170 -134.0405
v -33.75549 171 -137.7365
v -32.31909 139 -159.0808
v 33.03729 131 -159.0808
v -34.92004 -209 -159.0808
v 34.91998 -209 -159.0808
v 35.56903 182.9063 108.0477
v 34.7785 186.2805 -105.485
v 35.9101 170 -134.0405
v 35.19189 164 136.9261
v 35.9101 200 51.80042
v 33.75549 201 -50.19934
v 35.9101 170 -134.0405
v 33.03729 131 -159.0808
v 33.03729 131 159.0808
v 35.19189 164 136.9261
v -33.3783 189.9063 -110.6183
v -33.03723 207 -55.19946
v -31.60083 209 53.02686
v -33.30603 189.0574 110.7814
v -33.75549 171 -137.7365
v -35.19189 167 140.4834
v -35.91003 138 152.8005
v -32.31909 139 -159.0808
v -33.75549 171 -137.7365
v -35.19189 167 140.4834
v -34.83447 98.62378 33.57813
v -35.31311 97.75818 74.67065
v -35.01868 73.98019 33.57813
v -34.86194 41.03094 -1.500977
v -35.00439 21.96259 -1.500977
v -35.50513 72.06549 74.67065
v -35.19641 -3.730103 -1.500977
v -34.92004 -209 159.0806
v -35.28479 -81.16541 -1.500977
v -35.28467 -81.16541 -24.77441
v -34.92004 -209 -159.0808
v -34.17957 96.53723 -24.77441
v -34.44702 96.53723 -1.500977
v -34.67761 65.67456 -1.500977
v -20.62024 65.67456 -1.500977
v -20.62024 96.53723 -24.77441
v -20.62024 96.53723 -1.500977
v -20.62024 41.03094 -1.500977
v -20.62024 98.62378 33.57813
v -20.62024 73.98019 33.57813
v -20.62024 21.96259 -1.500977
v -20.62024 -81.16541 -24.77441
v -20.62024 -3.730103 -1.500977
v -20.62024 -81.16541 -1.500977
v -20.62024 97.75818 74.67065
v -20.62024 72.06549 74.67065
v -35.50513 72.06549 74.67065
v -20.62024 72.06549 74.67065
v -20.62024 97.75818 74.67065
v -35.31311 97.75818 74.67065
v -35.01868 73.98019 33.57813
v -20.62024 73.98019 33.57813
v -20.62024 98.62378 33.57813
v -34.83447 98.62378 33.57813
v -34.83447 98.62378 33.57813
v -20.62024 98.62378 33.57813
v -20.62024 65.67456 -1.500977
v -34.67761 65.67456 -1.500977
v -35.31311 97.75818 74.67065
v -20.62024 97.75818 74.67065
v -20.62024 21.96259 -1.500977
v -35.00439 21.96259 -1.500977
v -34.44702 96.53723 -1.500977
v -20.62024 96.53723 -1.500977
v -20.62024 96.53723 -24.77441
v -34.17957 96.53723 -24.77441
v -34.67761 65.67456 -1.500977
v -20.62024 65.67456 -1.500977
v -20.62024 96.53723 -1.500977
v -34.44702 96.53723 -1.500977
v -34.86194 41.03094 -1.500977
v -20.62024 41.03094 -1.500977
v -20.62024 73.98019 33.57813
v -35.01868 73.98019 33.57813
v -35.19641 -3.730103 -1.500977
v -20.62024 -3.730103 -1.500977
v -20.62024 72.06549 74.67065
v -35.50513 72.06549 74.67065
v -35.00439 21.96259 -1.500977
v -20.62024 21.96259 -1.500977
v -20.62024 41.03094 -1.500977
v -34.86194 41.03094 -1.500977
v 34.91998 -209 -159.0808
v 34.91998 -209 159.0806
v 33.03729 131 159.0808
v 33.03729 131 -159.0808
v -35.28467 -81.16541 -24.77441
v -20.62024 -81.16541 -24.77441
v -20.62024 -81.16541 -1.500977
v -35.28479 -81.16541 -1.500977
v -34.17957 96.53723 -24.77441
v -20.62024 96.53723 -24.77441
v -20.62024 -81.16541 -24.77441
v -35.28467 -81.16541 -24.77441
v -35.28479 -81.16541 -1.500977
v -20.62024 -81.16541 -1.500977
v -20.62024 -3.730103 -1.500977
v -35.19641 -3.730103 -1.500977
vn 0.05078907 0.672303 0.7385318
vn 0.04929956 0.664341 0.745802
vn 0.1016063 0.9038249 0.4156641
vn 0.1020034 0.9052474 0.412459
vn -0.03856891 0.0602399 0.9974385
vn -0.03985109 0.04968721 0.9979694
vn 0.1135223 0.9873326 0.1108462
vn 0.1135291 0.9872744 0.1113566
vn 0.1045436 0.9897131 -0.09766678
vn 0.1037249 0.9887162 -0.1080815
vn -0.04475283 0.008944225 0.9989581
vn -0.04475283 0.008944224 0.9989581
vn 0.08008885 0.9250393 -0.3713327
vn 0.07950956 0.9226925 -0.3772489
vn 0.06210963 0.6971798 -0.7142009
vn 0.06204018 0.6916474 -0.7195657
vn 0.007631757 0.07024378 -0.9975006
vn 0.006016146 0.05537347 -0.9984475
vn 0 0 -1
vn 0 0 -1
vn 0.9997701 0.02143905 0.0002655545
vn 0.9997701 0.02143905 0.0002655544
vn 0.9997701 0.02143905 0.0002655545
vn 0.9997701 0.02143905 0.0002655544
vn 0.9997353 0.02115705 -0.009038074
vn 0.9997353 0.02115705 -0.009038073
vn 0.9975695 -0.06967563 0.0005065131
vn 0.9975695 -0.06967562 0.0005065131
vn 0.9975695 -0.06967562 0.0005065131
vn 0.9975695 -0.06967563 0.0005065131
vn -0.9984524 0.05544076 0.004376226
vn -0.9984524 0.05544076 0.004376226
vn -0.9984524 0.05544076 0.004376226
vn -0.9984524 0.05544075 0.004376226
vn -0.9984826 0.05502341 -0.002192191
vn -0.9984826 0.05502341 -0.002192191
vn -0.9999079 -0.01049979 -0.008607642
vn -0.9999079 -0.01049979 -0.008607641
vn -0.9999079 -0.01049978 -0.008607641
vn -0.9999079 -0.01049979 -0.008607641
vn -0.9999061 0.00747308 -0.01148877
vn -0.9999061 0.007473565 -0.01148881
vn -0.9999061 0.007472623 -0.01148755
vn -0.9999061 0.007472332 -0.01148723
vn -0.9999061 0.007472332 -0.01148723
vn -0.9999942 -0.002616151 -0.002221844
vn -0.9999957 -0.002406974 -0.001695807
vn -0.9999959 -0.002852818 0
vn -0.9999959 -0.002852818 0
vn -0.999974 0.003217476 -0.006451471
vn -0.999972 0.003412597 -0.006658829
vn -0.9999195 0.007057766 -0.01054342
vn -0.9999061 0.007472925 -0.01148874
vn -0.9999061 0.007470762 -0.01148841
vn -1 0 0
vn -1 0 0
vn -1 0 0
vn -1 0 0
vn -1 0 0
vn -1 0 0
vn -1 0 0
vn -1 0 0
vn -1 0 0
vn -1 0 0
vn -1 0 0
vn -1 0 0
vn 0 0 -1
vn 0 0 -1
vn 0 0 -1
vn 0 0 -1
vn 0 0 -1
vn 0 0 -1
vn 0 0 -1
vn 0 0 -1
vn 0 -0.7288882 0.6846328
vn 0 -0.7288882 0.6846327
vn 0 -0.7288882 0.6846327
vn 0 -0.7288882 0.6846328
vn 0 -0.7088543 0.7053549
vn 0 -0.7088543 0.7053549
vn 0 -0.7088543 0.7053549
vn 0 -0.7088543 0.7053549
vn 0 -1 0
vn 0 -1 0
vn 0 -1 0
vn 0 -1 0
vn 0 0 -1
vn 0 0 -1
vn 0 0 -1
vn 0 0 -1
vn 0 0.7288879 -0.684633
vn 0 0.7288879 -0.684633
vn 0 0.7288879 -0.684633
vn 0 0.7288879 -0.684633
vn 0 0.7088543 -0.705355
vn 0 0.7088544 -0.7053549
vn 0 0.7088544 -0.7053549
vn 0 0.7088543 -0.7053549
vn 0 0 -1
vn 0 0 -1
vn 0 0 -1
vn 0 0 -1
vn 0.9999847 0.005537236 0
vn 0.9999847 0.005537235 0
vn 0.9999847 0.005537235 0
vn 0.9999847 0.005537236 0
vn 0 1 0
vn 0 1 0
vn 0 1 0
vn 0 1 0
vn 0 0 1
vn 0 0 1
vn 0 0 1
vn 0 0 1
vn 0 0 -1
vn 0 0 -1
vn 0 0 -1
vn 0 0 -1
vt 0.6683618 0.3593501
vt 0.6014521 0.355158
vt 0.6032106 0.3904882
vt 0.6686869 0.3914697
vt 0.6033694 0.324498
vt 0.6692773 0.3233594
vt 0.6047649 0.4472108
vt 0.668946 0.4472989
vt 0.6667796 0.5439116
vt 0.6032739 0.5477664
vt 0.6353853 0
vt 0.7015116 0.006214678
vt 0.6676881 0.5983526
vt 0.6028855 0.6019163
vt 0.6687308 0.6295616
vt 0.6024956 0.6331827
vt 0.6038364 0.6708244
vt 0.6659707 0.672026
vt 0.6409121 1
vt 0.7063383 0.992079
vt 0.3489452 0.370301
vt 0.5507037 0.3735271
vt 0.5776847 0.3581091
vt 0.3216591 0.3524402
vt 0.4020911 0.3864641
vt 0.4984665 0.3875199
vt 0.5776847 0.3581091
vt 0.6013442 0.3211615
vt 0.300726 0.321208
vt 0.3216591 0.3524402
vt 0.04578944 0.3768941
vt 0.09815148 0.3930644
vt 0.2004083 0.3950205
vt 0.2549772 0.3761144
vt 0.02016701 0.359033
vt 0.2830409 0.3552217
vt 0.2946787 0.3278344
vt 0 0.3287919
vt 0.02016701 0.359033
vt 0.2830409 0.3552217
vt 0.1820324 0.2906554
vt 0.2208583 0.2898371
vt 0.1820324 0.2673719
vt 0.1488881 0.2362401
vt 0.1488881 0.218223
vt 0.2208583 0.2655616
vt 0.1488881 0.1939474
vt 0.3006124 0
vt 0.1488881 0.1207829
vt 0.1268983 0.1207822
vt 0 1.950073E-06
vt 0.1268983 0.2886814
vt 0.1488881 0.2886832
vt 0.1488881 0.2595242
vt 0.7236827 0.1387337
vt 0.7016941 0.1678926
vt 0.7236827 0.1678926
vt 0.7236827 0.1154505
vt 0.7568254 0.1698639
vt 0.7568254 0.1465808
vt 0.7236827 0.09743476
vt 0.7016941 0
vt 0.7236827 0.07316047
vt 0.7236827 0
vt 0.7956493 0.1690461
vt 0.7956493 0.1447718
vt 0.7970462 0.02429873
vt 0.8111714 0.02429032
vt 0.8111714 1.192093E-05
vt 0.7972285 0
vt 0.7975079 0.5060056
vt 0.8111714 0.5060102
vt 0.8111714 0.4829521
vt 0.7976828 0.4829446
vt 0.7976828 0.4829446
vt 0.8111714 0.4829521
vt 0.8111714 0.437762
vt 0.7978315 0.4377617
vt 0.7972286 0.6707762
vt 0.8111714 0.6707762
vt 0.8111714 0.5693128
vt 0.7975215 0.569311
vt 0.7980505 0.4090432
vt 0.8111714 0.4090462
vt 0.8111714 0.3872471
vt 0.7983041 0.3872638
vt 0.7978315 0.4377617
vt 0.8111714 0.437762
vt 0.8111714 0.4090462
vt 0.7980505 0.4090432
vt 0.7976567 0.5512365
vt 0.8111714 0.5512353
vt 0.8111714 0.5060102
vt 0.7975079 0.5060056
vt 0.7973392 0.1256952
vt 0.8111714 0.1256981
vt 0.8111714 0.02429032
vt 0.7970462 0.02429873
vt 0.7975215 0.569311
vt 0.8111714 0.5693128
vt 0.8111714 0.5512353
vt 0.7976567 0.5512365
vt 0.6013442 0
vt 0.3007263 1.907465E-06
vt 0.300726 0.321208
vt 0.6013442 0.3211615
vt 0.7972555 0.2203884
vt 0.8111714 0.2203889
vt 0.8111714 0.1984985
vt 0.7972555 0.198499
vt 0.7983041 0.3872638
vt 0.8111714 0.3872471
vt 0.8111714 0.2203889
vt 0.7972555 0.2203884
vt 0.7972555 0.198499
vt 0.8111714 0.1984985
vt 0.8111714 0.1256981
vt 0.7973392 0.1256952
usemtl Door_2
f 3/3/3 2/2/2 1/1/1
f 4/4/4 3/3/3 1/1/1
f 1/1/1 2/2/2 5/5/5
f 6/6/6 1/1/1 5/5/5
f 7/7/7 3/3/3 4/4/4
f 8/8/8 7/7/7 4/4/4
f 8/8/8 9/9/9 7/7/7
f 9/9/9 10/10/10 7/7/7
f 5/5/5 11/11/11 6/6/6
f 11/11/11 12/12/12 6/6/6
f 9/9/9 13/13/13 10/10/10
f 13/13/13 14/14/14 10/10/10
f 13/13/13 15/15/15 14/14/14
f 15/15/15 16/16/16 14/14/14
f 17/17/17 16/16/16 15/15/15
f 18/18/18 17/17/17 15/15/15
f 17/17/17 18/18/18 19/19/19
f 18/18/18 20/20/20 19/19/19
f 23/23/23 22/22/22 21/21/21
f 24/24/24 23/23/23 21/21/21
f 21/21/21 22/22/22 25/25/25
f 22/22/22 26/26/26 25/25/25
f 29/29/29 28/28/28 27/27/27
f 30/30/30 29/29/29 27/27/27
f 33/33/33 32/32/32 31/31/31
f 34/34/34 33/33/33 31/31/31
f 34/34/34 31/31/31 35/35/35
f 36/36/36 34/34/34 35/35/35
f 39/39/39 38/38/38 37/37/37
f 40/40/40 39/39/39 37/37/37
f 37/37/37 38/38/38 41/41/41
f 37/37/37 41/41/41 42/42/42
f 41/41/41 43/43/43 42/42/42
f 43/43/43 44/44/44 42/42/42
f 44/44/44 45/45/45 42/42/42
f 37/37/37 42/42/42 46/46/46
f 37/37/37 46/46/46 47/47/47
f 48/48/48 37/37/37 47/47/47
f 47/47/47 49/49/49 48/48/48
f 48/48/48 49/49/49 50/50/50
f 51/51/51 48/48/48 50/50/50
f 51/51/51 50/50/50 52/52/52
f 38/38/38 51/51/51 52/52/52
f 38/38/38 52/52/52 53/53/53
f 38/38/38 53/53/53 41/41/41
f 53/53/53 54/54/54 41/41/41
f 57/57/57 56/56/56 55/55/55
f 55/55/55 56/56/56 58/58/58
f 59/59/59 55/55/55 58/58/58
f 60/60/60 59/59/59 58/58/58
f 58/58/58 56/56/56 61/61/61
f 56/56/56 62/62/62 61/61/61
f 61/61/61 62/62/62 63/63/63
f 63/63/63 62/62/62 64/64/64
f 65/65/65 61/61/61 63/63/63
f 66/66/66 65/65/65 63/63/63
f 69/69/69 68/68/68 67/67/67
f 70/70/70 69/69/69 67/67/67
f 73/73/73 72/72/72 71/71/71
f 74/74/74 73/73/73 71/71/71
f 77/77/77 76/76/76 75/75/75
f 78/78/78 77/77/77 75/75/75
f 81/81/81 80/80/80 79/79/79
f 82/82/82 81/81/81 79/79/79
f 85/85/85 84/84/84 83/83/83
f 86/86/86 85/85/85 83/83/83
f 89/89/89 88/88/88 87/87/87
f 90/90/90 89/89/89 87/87/87
f 93/93/93 92/92/92 91/91/91
f 94/94/94 93/93/93 91/91/91
f 97/97/97 96/96/96 95/95/95
f 98/98/98 97/97/97 95/95/95
f 101/101/101 100/100/100 99/99/99
f 102/102/102 101/101/101 99/99/99
f 105/105/105 104/104/104 103/103/103
f 106/106/106 105/105/105 103/103/103
f 109/109/109 108/108/108 107/107/107
f 110/110/110 109/109/109 107/107/107
f 113/113/113 112/112/112 111/111/111
f 114/114/114 113/113/113 111/111/111
f 117/117/117 116/116/116 115/115/115
f 118/118/118 117/117/117 115/115/115
