# Export of Level 2
# from Aaro4130 OBJ Exporter v2.0
v -5 -1.110223E-16 5
v -5 -8.881784E-17 4
v -4 -8.881784E-17 4
v -4 -1.110223E-16 5
v -3 -8.881784E-17 4
v -3 -1.110223E-16 5
v -2 -8.881784E-17 4
v -2 -1.110223E-16 5
v -1 -8.881784E-17 4
v -1 -1.110223E-16 5
v 0 -8.881784E-17 4
v 0 -1.110223E-16 5
v 1 -8.881784E-17 4
v 1 -1.110223E-16 5
v 2 -8.881784E-17 4
v 2 -1.110223E-16 5
v 3 -8.881784E-17 4
v 3 -1.110223E-16 5
v 4 -8.881784E-17 4
v 4 -1.110223E-16 5
v 5 -8.881784E-17 4
v 5 -1.110223E-16 5
v -1 -6.661338E-17 3
v 0 -6.661338E-17 3
v 1 -6.661338E-17 3
v 2 -6.661338E-17 3
v 3 -6.661338E-17 3
v 4 -6.661338E-17 3
v 5 -6.661338E-17 3
v 0 -4.440892E-17 2
v -1 -4.440892E-17 2
v -2 -6.661338E-17 3
v -3 -6.661338E-17 3
v -4 -6.661338E-17 3
v -5 -6.661338E-17 3
v -4 -4.440892E-17 2
v -5 -4.440892E-17 2
v -3 -4.440892E-17 2
v -2 -4.440892E-17 2
v 5 -4.440892E-17 2
v -4 -2.220446E-17 1
v -5 -2.220446E-17 1
v -3 -2.220446E-17 1
v -2 -2.220446E-17 1
v -1 -2.220446E-17 1
v 0 -2.220446E-17 1
v 1 -2.220446E-17 1
v 1 -4.440892E-17 2
v 2 -4.440892E-17 2
v 3 -4.440892E-17 2
v 4 -4.440892E-17 2
v 2 -2.220446E-17 1
v 3 -2.220446E-17 1
v 4 -2.220446E-17 1
v 5 -2.220446E-17 1
v 2 0 0
v 1 0 0
v 3 0 0
v 4 0 0
v 5 0 0
v 2 2.220446E-17 -1
v 1 2.220446E-17 -1
v 0 0 0
v -1 0 0
v -2 0 0
v -3 0 0
v -4 0 0
v -5 0 0
v -4 2.220446E-17 -1
v -5 2.220446E-17 -1
v -3 2.220446E-17 -1
v -2 2.220446E-17 -1
v -1 2.220446E-17 -1
v 0 2.220446E-17 -1
v -4 4.440892E-17 -2
v -5 4.440892E-17 -2
v -3 4.440892E-17 -2
v -2 4.440892E-17 -2
v -1 4.440892E-17 -2
v 0 4.440892E-17 -2
v 1 4.440892E-17 -2
v 2 4.440892E-17 -2
v 3 4.440892E-17 -2
v 3 2.220446E-17 -1
v 4 2.220446E-17 -1
v 5 2.220446E-17 -1
v 4 4.440892E-17 -2
v 5 4.440892E-17 -2
v -1 6.661338E-17 -3
v 0 6.661338E-17 -3
v 1 6.661338E-17 -3
v 2 6.661338E-17 -3
v 3 6.661338E-17 -3
v 4 6.661338E-17 -3
v 5 6.661338E-17 -3
v 0 8.881784E-17 -4
v -1 8.881784E-17 -4
v -2 6.661338E-17 -3
v -3 6.661338E-17 -3
v -4 6.661338E-17 -3
v -5 6.661338E-17 -3
v -4 8.881784E-17 -4
v -5 8.881784E-17 -4
v -3 8.881784E-17 -4
v -2 8.881784E-17 -4
v 5 8.881784E-17 -4
v -4 1.110223E-16 -5
v -5 1.110223E-16 -5
v -3 1.110223E-16 -5
v -2 1.110223E-16 -5
v -1 1.110223E-16 -5
v 0 1.110223E-16 -5
v 1 1.110223E-16 -5
v 1 8.881784E-17 -4
v 2 8.881784E-17 -4
v 3 8.881784E-17 -4
v 4 8.881784E-17 -4
v 2 1.110223E-16 -5
v 3 1.110223E-16 -5
v 4 1.110223E-16 -5
v 5 1.110223E-16 -5
vn 0 1 0
vn 0 1 0
vn 0 1 0
vn 0 1 0
vn 0 1 0
vn 0 1 0
vn 0 1 0
vn 0 1 0
vn 0 1 0
vn 0 1 0
vn 0 1 0
vn 0 1 0
vn 0 1 0
vn 0 1 0
vn 0 1 0
vn 0 1 0
vn 0 1 0
vn 0 1 0
vn 0 1 0
vn 0 1 0
vn 0 1 0
vn 0 1 0
vn 0 1 0
vn 0 1 0
vn 0 1 0
vn 0 1 0
vn 0 1 0
vn 0 1 0
vn 0 1 0
vn 0 1 0
vn 0 1 0
vn 0 1 0
vn 0 1 0
vn 0 1 0
vn 0 1 0
vn 0 1 0
vn 0 1 0
vn 0 1 0
vn 0 1 0
vn 0 1 0
vn 0 1 0
vn 0 1 0
vn 0 1 0
vn 0 1 0
vn 0 1 0
vn 0 1 0
vn 0 1 0
vn 0 1 0
vn 0 1 0
vn 0 1 0
vn 0 1 0
vn 0 1 0
vn 0 1 0
vn 0 1 0
vn 0 1 0
vn 0 1 0
vn 0 1 0
vn 0 1 0
vn 0 1 0
vn 0 1 0
vn 0 1 0
vn 0 1 0
vn 0 1 0
vn 0 1 0
vn 0 1 0
vn 0 1 0
vn 0 1 0
vn 0 1 0
vn 0 1 0
vn 0 1 0
vn 0 1 0
vn 0 1 0
vn 0 1 0
vn 0 1 0
vn 0 1 0
vn 0 1 0
vn 0 1 0
vn 0 1 0
vn 0 1 0
vn 0 1 0
vn 0 1 0
vn 0 1 0
vn 0 1 0
vn 0 1 0
vn 0 1 0
vn 0 1 0
vn 0 1 0
vn 0 1 0
vn 0 1 0
vn 0 1 0
vn 0 1 0
vn 0 1 0
vn 0 1 0
vn 0 1 0
vn 0 1 0
vn 0 1 0
vn 0 1 0
vn 0 1 0
vn 0 1 0
vn 0 1 0
vn 0 1 0
vn 0 1 0
vn 0 1 0
vn 0 1 0
vn 0 1 0
vn 0 1 0
vn 0 1 0
vn 0 1 0
vn 0 1 0
vn 0 1 0
vn 0 1 0
vn 0 1 0
vn 0 1 0
vn 0 1 0
vn 0 1 0
vn 0 1 0
vn 0 1 0
vn 0 1 0
vn 0 1 0
vn 0 1 0
vn 0 1 0
vt 0 0
vt 0 0.1
vt 0.1 0.1
vt 0.1 0
vt 0.2 0.1
vt 0.2 0
vt 0.3 0.1
vt 0.3 0
vt 0.4 0.1
vt 0.4 0
vt 0.5 0.1
vt 0.5 0
vt 0.6 0.1
vt 0.6 0
vt 0.7 0.1
vt 0.7 0
vt 0.8 0.1
vt 0.8 0
vt 0.9 0.1
vt 0.9 0
vt 1 0.1
vt 1 0
vt 0.4 0.2
vt 0.5 0.2
vt 0.6 0.2
vt 0.7 0.2
vt 0.8 0.2
vt 0.9 0.2
vt 1 0.2
vt 0.5 0.3
vt 0.4 0.3
vt 0.3 0.2
vt 0.2 0.2
vt 0.1 0.2
vt 0 0.2
vt 0.1 0.3
vt 0 0.3
vt 0.2 0.3
vt 0.3 0.3
vt 1 0.3
vt 0.1 0.4
vt 0 0.4
vt 0.2 0.4
vt 0.3 0.4
vt 0.4 0.4
vt 0.5 0.4
vt 0.6 0.4
vt 0.6 0.3
vt 0.7 0.3
vt 0.8 0.3
vt 0.9 0.3
vt 0.7 0.4
vt 0.8 0.4
vt 0.9 0.4
vt 1 0.4
vt 0.7 0.5
vt 0.6 0.5
vt 0.8 0.5
vt 0.9 0.5
vt 1 0.5
vt 0.7 0.6
vt 0.6 0.6
vt 0.5 0.5
vt 0.4 0.5
vt 0.3 0.5
vt 0.2 0.5
vt 0.1 0.5
vt 0 0.5
vt 0.1 0.6
vt 0 0.6
vt 0.2 0.6
vt 0.3 0.6
vt 0.4 0.6
vt 0.5 0.6
vt 0.1 0.7
vt 0 0.7
vt 0.2 0.7
vt 0.3 0.7
vt 0.4 0.7
vt 0.5 0.7
vt 0.6 0.7
vt 0.7 0.7
vt 0.8 0.7
vt 0.8 0.6
vt 0.9 0.6
vt 1 0.6
vt 0.9 0.7
vt 1 0.7
vt 0.4 0.8
vt 0.5 0.8
vt 0.6 0.8
vt 0.7 0.8
vt 0.8 0.8
vt 0.9 0.8
vt 1 0.8
vt 0.5 0.9
vt 0.4 0.9
vt 0.3 0.8
vt 0.2 0.8
vt 0.1 0.8
vt 0 0.8
vt 0.1 0.9
vt 0 0.9
vt 0.2 0.9
vt 0.3 0.9
vt 1 0.9
vt 0.1 1
vt 0 1
vt 0.2 1
vt 0.3 1
vt 0.4 1
vt 0.5 1
vt 0.6 1
vt 0.6 0.9
vt 0.7 0.9
vt 0.8 0.9
vt 0.9 0.9
vt 0.7 1
vt 0.8 1
vt 0.9 1
vt 1 1
usemtl Terrain_Material
f 3/3/3 2/2/2 1/1/1
f 4/4/4 3/3/3 1/1/1
f 5/5/5 3/3/3 4/4/4
f 6/6/6 5/5/5 4/4/4
f 7/7/7 5/5/5 6/6/6
f 8/8/8 7/7/7 6/6/6
f 9/9/9 7/7/7 8/8/8
f 10/10/10 9/9/9 8/8/8
f 11/11/11 9/9/9 10/10/10
f 12/12/12 11/11/11 10/10/10
f 13/13/13 11/11/11 12/12/12
f 14/14/14 13/13/13 12/12/12
f 15/15/15 13/13/13 14/14/14
f 16/16/16 15/15/15 14/14/14
f 17/17/17 15/15/15 16/16/16
f 18/18/18 17/17/17 16/16/16
f 19/19/19 17/17/17 18/18/18
f 20/20/20 19/19/19 18/18/18
f 21/21/21 19/19/19 20/20/20
f 22/22/22 21/21/21 20/20/20
f 9/9/9 23/23/23 7/7/7
f 24/24/24 23/23/23 9/9/9
f 11/11/11 24/24/24 9/9/9
f 25/25/25 24/24/24 11/11/11
f 13/13/13 25/25/25 11/11/11
f 26/26/26 25/25/25 13/13/13
f 15/15/15 26/26/26 13/13/13
f 27/27/27 26/26/26 15/15/15
f 17/17/17 27/27/27 15/15/15
f 28/28/28 27/27/27 17/17/17
f 19/19/19 28/28/28 17/17/17
f 29/29/29 28/28/28 19/19/19
f 21/21/21 29/29/29 19/19/19
f 24/24/24 30/30/30 23/23/23
f 30/30/30 31/31/31 23/23/23
f 23/23/23 31/31/31 32/32/32
f 23/23/23 32/32/32 7/7/7
f 7/7/7 32/32/32 5/5/5
f 32/32/32 33/33/33 5/5/5
f 5/5/5 33/33/33 3/3/3
f 33/33/33 34/34/34 3/3/3
f 3/3/3 34/34/34 2/2/2
f 34/34/34 35/35/35 2/2/2
f 34/34/34 36/36/36 35/35/35
f 36/36/36 37/37/37 35/35/35
f 38/38/38 36/36/36 34/34/34
f 33/33/33 38/38/38 34/34/34
f 39/39/39 38/38/38 33/33/33
f 32/32/32 39/39/39 33/33/33
f 31/31/31 39/39/39 32/32/32
f 29/29/29 40/40/40 28/28/28
f 36/36/36 41/41/41 37/37/37
f 41/41/41 42/42/42 37/37/37
f 43/43/43 41/41/41 36/36/36
f 38/38/38 43/43/43 36/36/36
f 44/44/44 43/43/43 38/38/38
f 39/39/39 44/44/44 38/38/38
f 45/45/45 44/44/44 39/39/39
f 31/31/31 45/45/45 39/39/39
f 46/46/46 45/45/45 31/31/31
f 30/30/30 46/46/46 31/31/31
f 47/47/47 46/46/46 30/30/30
f 48/48/48 47/47/47 30/30/30
f 48/48/48 30/30/30 24/24/24
f 25/25/25 48/48/48 24/24/24
f 49/49/49 48/48/48 25/25/25
f 26/26/26 49/49/49 25/25/25
f 50/50/50 49/49/49 26/26/26
f 27/27/27 50/50/50 26/26/26
f 51/51/51 50/50/50 27/27/27
f 28/28/28 51/51/51 27/27/27
f 40/40/40 51/51/51 28/28/28
f 52/52/52 47/47/47 48/48/48
f 49/49/49 52/52/52 48/48/48
f 53/53/53 52/52/52 49/49/49
f 50/50/50 53/53/53 49/49/49
f 54/54/54 53/53/53 50/50/50
f 51/51/51 54/54/54 50/50/50
f 55/55/55 54/54/54 51/51/51
f 40/40/40 55/55/55 51/51/51
f 52/52/52 56/56/56 47/47/47
f 56/56/56 57/57/57 47/47/47
f 58/58/58 56/56/56 52/52/52
f 53/53/53 58/58/58 52/52/52
f 59/59/59 58/58/58 53/53/53
f 54/54/54 59/59/59 53/53/53
f 60/60/60 59/59/59 54/54/54
f 55/55/55 60/60/60 54/54/54
f 56/56/56 61/61/61 57/57/57
f 61/61/61 62/62/62 57/57/57
f 57/57/57 62/62/62 63/63/63
f 57/57/57 63/63/63 46/46/46
f 46/46/46 63/63/63 45/45/45
f 63/63/63 64/64/64 45/45/45
f 45/45/45 64/64/64 44/44/44
f 64/64/64 65/65/65 44/44/44
f 44/44/44 65/65/65 43/43/43
f 65/65/65 66/66/66 43/43/43
f 43/43/43 66/66/66 41/41/41
f 66/66/66 67/67/67 41/41/41
f 41/41/41 67/67/67 42/42/42
f 67/67/67 68/68/68 42/42/42
f 67/67/67 69/69/69 68/68/68
f 69/69/69 70/70/70 68/68/68
f 71/71/71 69/69/69 67/67/67
f 66/66/66 71/71/71 67/67/67
f 72/72/72 71/71/71 66/66/66
f 65/65/65 72/72/72 66/66/66
f 73/73/73 72/72/72 65/65/65
f 64/64/64 73/73/73 65/65/65
f 74/74/74 73/73/73 64/64/64
f 63/63/63 74/74/74 64/64/64
f 62/62/62 74/74/74 63/63/63
f 69/69/69 75/75/75 70/70/70
f 75/75/75 76/76/76 70/70/70
f 77/77/77 75/75/75 69/69/69
f 71/71/71 77/77/77 69/69/69
f 78/78/78 77/77/77 71/71/71
f 72/72/72 78/78/78 71/71/71
f 79/79/79 78/78/78 72/72/72
f 73/73/73 79/79/79 72/72/72
f 80/80/80 79/79/79 73/73/73
f 74/74/74 80/80/80 73/73/73
f 81/81/81 80/80/80 74/74/74
f 62/62/62 81/81/81 74/74/74
f 82/82/82 81/81/81 62/62/62
f 61/61/61 82/82/82 62/62/62
f 83/83/83 82/82/82 61/61/61
f 84/84/84 83/83/83 61/61/61
f 84/84/84 61/61/61 56/56/56
f 58/58/58 84/84/84 56/56/56
f 85/85/85 84/84/84 58/58/58
f 59/59/59 85/85/85 58/58/58
f 86/86/86 85/85/85 59/59/59
f 60/60/60 86/86/86 59/59/59
f 87/87/87 83/83/83 84/84/84
f 85/85/85 87/87/87 84/84/84
f 88/88/88 87/87/87 85/85/85
f 86/86/86 88/88/88 85/85/85
f 79/79/79 89/89/89 78/78/78
f 90/90/90 89/89/89 79/79/79
f 80/80/80 90/90/90 79/79/79
f 91/91/91 90/90/90 80/80/80
f 81/81/81 91/91/91 80/80/80
f 92/92/92 91/91/91 81/81/81
f 82/82/82 92/92/92 81/81/81
f 93/93/93 92/92/92 82/82/82
f 83/83/83 93/93/93 82/82/82
f 94/94/94 93/93/93 83/83/83
f 87/87/87 94/94/94 83/83/83
f 95/95/95 94/94/94 87/87/87
f 88/88/88 95/95/95 87/87/87
f 90/90/90 96/96/96 89/89/89
f 96/96/96 97/97/97 89/89/89
f 89/89/89 97/97/97 98/98/98
f 89/89/89 98/98/98 78/78/78
f 78/78/78 98/98/98 77/77/77
f 98/98/98 99/99/99 77/77/77
f 77/77/77 99/99/99 75/75/75
f 99/99/99 100/100/100 75/75/75
f 75/75/75 100/100/100 76/76/76
f 100/100/100 101/101/101 76/76/76
f 100/100/100 102/102/102 101/101/101
f 102/102/102 103/103/103 101/101/101
f 104/104/104 102/102/102 100/100/100
f 99/99/99 104/104/104 100/100/100
f 105/105/105 104/104/104 99/99/99
f 98/98/98 105/105/105 99/99/99
f 97/97/97 105/105/105 98/98/98
f 95/95/95 106/106/106 94/94/94
f 102/102/102 107/107/107 103/103/103
f 107/107/107 108/108/108 103/103/103
f 109/109/109 107/107/107 102/102/102
f 104/104/104 109/109/109 102/102/102
f 110/110/110 109/109/109 104/104/104
f 105/105/105 110/110/110 104/104/104
f 111/111/111 110/110/110 105/105/105
f 97/97/97 111/111/111 105/105/105
f 112/112/112 111/111/111 97/97/97
f 96/96/96 112/112/112 97/97/97
f 113/113/113 112/112/112 96/96/96
f 114/114/114 113/113/113 96/96/96
f 114/114/114 96/96/96 90/90/90
f 91/91/91 114/114/114 90/90/90
f 115/115/115 114/114/114 91/91/91
f 92/92/92 115/115/115 91/91/91
f 116/116/116 115/115/115 92/92/92
f 93/93/93 116/116/116 92/92/92
f 117/117/117 116/116/116 93/93/93
f 94/94/94 117/117/117 93/93/93
f 106/106/106 117/117/117 94/94/94
f 118/118/118 113/113/113 114/114/114
f 115/115/115 118/118/118 114/114/114
f 119/119/119 118/118/118 115/115/115
f 116/116/116 119/119/119 115/115/115
f 120/120/120 119/119/119 116/116/116
f 117/117/117 120/120/120 116/116/116
f 121/121/121 120/120/120 117/117/117
f 106/106/106 121/121/121 117/117/117
f 47/47/47 57/57/57 46/46/46
