# Export of Level 2
# from Aaro4130 OBJ Exporter v2.0
v -29.40112 -1.751828 4.171143
v -4.67688 -1.751828 4.171143
v -29.40112 -1.751827 11.60217
v 3.526611 -1.751828 4.171143
v 27.72742 -1.751828 -20.14972
v 19.52393 -1.751828 -20.14972
v 27.33752 -1.751827 11.60217
v 9.614868 -1.751828 4.171143
v 17.4834 -1.751828 4.171143
v 27.33752 -1.751828 4.171143
v 28.00378 -1.751828 -7.029236
v 20.13525 -1.751828 -7.029236
v -29.40112 1.751828 4.171143
v -29.40112 -1.751828 4.171143
v -29.40112 -1.751827 11.60217
v -29.40112 1.751828 11.60217
v -4.67688 1.751828 4.171143
v -4.67688 -1.751828 4.171143
v -29.40112 -1.751828 4.171143
v -29.40112 1.751828 4.171143
v 19.52393 1.751828 -20.14972
v 19.52393 -1.751828 -20.14972
v -4.67688 -1.751828 4.171143
v -4.67688 1.751828 4.171143
v 27.72742 1.751828 -20.14972
v 27.72742 -1.751828 -20.14972
v 19.52393 -1.751828 -20.14972
v 19.52393 1.751828 -20.14972
v 3.526611 1.751828 4.171143
v 3.526611 -1.751828 4.171143
v 27.72742 -1.751828 -20.14972
v 27.72742 1.751828 -20.14972
v -29.40112 1.751828 11.60217
v -29.40112 -1.751827 11.60217
v 27.33752 -1.751827 11.60217
v 27.33752 1.751828 11.60217
v 9.614868 1.751828 4.171143
v 9.614868 -1.751828 4.171143
v 3.526611 -1.751828 4.171143
v 3.526611 1.751828 4.171143
v 20.13525 1.751828 -7.029236
v 20.13525 -1.751828 -7.029236
v 9.614868 -1.751828 4.171143
v 9.614868 1.751828 4.171143
v 28.00378 1.751828 -7.029236
v 28.00378 -1.751828 -7.029236
v 20.13525 -1.751828 -7.029236
v 20.13525 1.751828 -7.029236
v 17.4834 1.751828 4.171143
v 17.4834 -1.751828 4.171143
v 28.00378 -1.751828 -7.029236
v 28.00378 1.751828 -7.029236
v 27.33752 1.751828 4.171143
v 27.33752 -1.751828 4.171143
v 17.4834 -1.751828 4.171143
v 17.4834 1.751828 4.171143
v 27.33752 1.751828 11.60217
v 27.33752 -1.751827 11.60217
v 27.33752 -1.751828 4.171143
v 27.33752 1.751828 4.171143
v -29.40112 1.751828 4.171143
v -43.30334 1.751828 -43.30341
v 19.52393 1.751828 -20.14972
v -4.67688 1.751828 4.171143
v -43.30334 1.751828 43.30334
v -29.40112 1.751828 11.60217
v 43.30334 1.751828 43.30334
v 27.33752 1.751828 11.60217
v 27.33752 1.751828 4.171143
v 43.30334 1.751828 -43.30341
v 28.00378 1.751828 -7.029236
v 17.4834 1.751828 4.171143
v 27.72742 1.751828 -20.14972
v 20.13525 1.751828 -7.029236
v 3.526611 1.751828 4.171143
v 9.614868 1.751828 4.171143
vn 0 1 0
vn 0 1 0
vn 0 1 0
vn 0 1 0
vn 0 1 0
vn 0 1 0
vn 0 1 0
vn 0 1 0
vn 0 1 0
vn 0 1 0
vn 0 1 0
vn 0 1 0
vn 1 0 0
vn 1 0 0
vn 1 0 0
vn 1 0 0
vn 0 0 1
vn 0 0 1
vn 0 0 1
vn 0 0 1
vn 0.7088541 0 0.7053551
vn 0.7088541 0 0.7053551
vn 0.7088541 0 0.7053551
vn 0.7088541 0 0.7053551
vn 0 0 1
vn 0 0 1
vn 0 0 1
vn 0 0 1
vn -0.7088541 0 -0.7053551
vn -0.7088541 0 -0.7053551
vn -0.7088541 0 -0.7053551
vn -0.7088541 0 -0.7053551
vn 0 0 -1
vn 0 0 -1
vn 0 0 -1
vn 0 0 -1
vn 0 0 1
vn 0 0 1
vn 0 0 1
vn 0 0 1
vn 0.7288865 0 0.6846346
vn 0.7288865 0 0.6846346
vn 0.7288865 0 0.6846346
vn 0.7288865 0 0.6846346
vn 0 0 1
vn 0 0 1
vn 0 0 1
vn 0 0 1
vn -0.7288865 0 -0.6846346
vn -0.7288865 0 -0.6846346
vn -0.7288865 0 -0.6846346
vn -0.7288865 0 -0.6846346
vn 0 0 1
vn 0 0 1
vn 0 0 1
vn 0 0 1
vn -1 0 0
vn -1 0 0
vn -1 0 0
vn -1 0 0
vn 0 1 0
vn 0 1 0
vn 0 1 0
vn 0 1 0
vn 0 1 0
vn 0 1 0
vn 0 1 0
vn 0 1 0
vn 0 1 0
vn 0 1 0
vn 0 1 0
vn 0 1 0
vn 0 1 0
vn 0 1 0
vn 0 1 0
vn 0 1 0
vt 0.9019547 0.02358329
vt 0.9019554 0.1899846
vt 0.9519681 0.02358174
vt 0.901955 0.2451961
vt 0.7382682 0.4080741
vt 0.7382682 0.3528621
vt 0.9519681 0.4054462
vt 0.901955 0.286172
vt 0.901955 0.3391289
vt 0.901955 0.4054554
vt 0.826573 0.4099342
vt 0.826573 0.3569765
vt 0.901953 3.33786E-06
vt 0.9019547 0.02358329
vt 0.9519681 0.02358174
vt 0.9519665 0
vt 0.8741512 0.1899849
vt 0.9019554 0.1899846
vt 0.9019547 0.02358329
vt 0.8741497 0.02358294
vt 0.9764192 0.2133484
vt 1 0.2133484
vt 1 0
vt 0.9764192 0
vt 0.9764192 0.2685457
vt 1 0.2685457
vt 1 0.2133484
vt 0.9764192 0.2133484
vt 0.9764192 0.4994632
vt 1 0.4994632
vt 1 0.2685457
vt 0.9764192 0.2685457
vt 0.9755488 0.02358258
vt 0.9519681 0.02358174
vt 0.9519681 0.4054462
vt 0.9755488 0.4054507
vt 0.9764193 0.5404395
vt 1 0.5404395
vt 1 0.4994632
vt 0.9764192 0.4994632
vt 0.9764193 0.64386
vt 1 0.64386
vt 1 0.5404395
vt 0.9764193 0.5404395
vt 0.9764192 0.6968173
vt 1 0.6968173
vt 1 0.64386
vt 0.9764193 0.64386
vt 0.9764192 0.8002378
vt 0.9999999 0.8002378
vt 1 0.6968173
vt 0.9764192 0.6968173
vt 0.9764192 0.866559
vt 0.9999999 0.866559
vt 0.9999999 0.8002378
vt 0.9764192 0.8002378
vt 0.9519768 0.4290223
vt 0.9519681 0.4054462
vt 0.901955 0.4054554
vt 0.9019638 0.4290408
vt 0.5661424 0.3960763
vt 0.6597081 0.07817858
vt 0.2368624 0.2334867
vt 0.3997403 0.396503
vt 0.6597081 0.6580467
vt 0.5661424 0.4456996
vt 0.07681929 0.6577224
vt 0.1842745 0.445464
vt 0.1842745 0.3958352
vt 0.07681929 0.07829207
vt 0.1797908 0.3209648
vt 0.2505958 0.3956659
vt 0.1816508 0.2332639
vt 0.232748 0.3211445
vt 0.3445288 0.3960878
vt 0.3035525 0.3961934
usemtl Pressure_plate_2_Nikita
f 3/3/3 2/2/2 1/1/1
f 3/3/3 4/4/4 2/2/2
f 4/4/4 5/5/5 2/2/2
f 5/5/5 6/6/6 2/2/2
f 3/3/3 7/7/7 4/4/4
f 7/7/7 8/8/8 4/4/4
f 7/7/7 9/9/9 8/8/8
f 7/7/7 10/10/10 9/9/9
f 9/9/9 11/11/11 8/8/8
f 11/11/11 12/12/12 8/8/8
f 15/15/15 14/14/14 13/13/13
f 16/16/16 15/15/15 13/13/13
f 19/19/19 18/18/18 17/17/17
f 20/20/20 19/19/19 17/17/17
f 23/23/23 22/22/22 21/21/21
f 24/24/24 23/23/23 21/21/21
f 27/27/27 26/26/26 25/25/25
f 28/28/28 27/27/27 25/25/25
f 31/31/31 30/30/30 29/29/29
f 32/32/32 31/31/31 29/29/29
f 35/35/35 34/34/34 33/33/33
f 36/36/36 35/35/35 33/33/33
f 39/39/39 38/38/38 37/37/37
f 40/40/40 39/39/39 37/37/37
f 43/43/43 42/42/42 41/41/41
f 44/44/44 43/43/43 41/41/41
f 47/47/47 46/46/46 45/45/45
f 48/48/48 47/47/47 45/45/45
f 51/51/51 50/50/50 49/49/49
f 52/52/52 51/51/51 49/49/49
f 55/55/55 54/54/54 53/53/53
f 56/56/56 55/55/55 53/53/53
f 59/59/59 58/58/58 57/57/57
f 60/60/60 59/59/59 57/57/57
f 63/63/63 62/62/62 61/61/61
f 64/64/64 63/63/63 61/61/61
f 61/61/61 62/62/62 65/65/65
f 66/66/66 61/61/61 65/65/65
f 66/66/66 65/65/65 67/67/67
f 68/68/68 66/66/66 67/67/67
f 69/69/69 68/68/68 67/67/67
f 69/69/69 67/67/67 70/70/70
f 71/71/71 69/69/69 70/70/70
f 71/71/71 72/72/72 69/69/69
f 73/73/73 70/70/70 62/62/62
f 63/63/63 73/73/73 62/62/62
f 74/74/74 71/71/71 70/70/70
f 73/73/73 74/74/74 70/70/70
f 73/73/73 75/75/75 74/74/74
f 75/75/75 76/76/76 74/74/74
