# Export of Level 2
# from Aaro4130 OBJ Exporter v2.0
v -0.4363607 2.5 -2.185939
v -0.4999999 2.5 -2.500001
v 0.5 2.5 -2.500001
v 0.4524689 2.5 -2.173164
v 0.5 2.1 -2.089078
v 0.5 2.1 -2.500001
v 0.5 -1.9 -2.500001
v 0.5 2.1 -1.525312
v 0.5 2.18 -0.9995666
v 0.5 2.14 -0.4953979
v 0.5 2.08 -0.04612427
v 0.5 2.06 0.6446375
v 0.5 -1.9 2.5
v 0.5 2.07 1.127157
v 0.5 2.09 1.608517
v 0.5 2.1 2.15307
v 0.5 2.1 2.5
v -0.4999999 -1.9 -2.500001
v -0.4999999 2.1 -2.500001
v -0.4999999 2.1 -2.089078
v -0.4999999 2.1 -1.525312
v -0.4999999 2.18 -0.9995666
v -0.4999999 2.14 -0.4953979
v -0.4999999 2.08 -0.04612427
v -0.4999999 -1.9 2.5
v -0.4999999 2.06 0.6446375
v -0.4999999 2.07 1.127157
v -0.4999999 2.09 1.608517
v -0.4999999 2.1 2.15307
v -0.4999999 2.1 2.5
v -0.4999999 2.5 2.5
v -0.4674774 2.5 2.1976
v 0.4556623 2.5 2.191087
v 0.5 2.5 2.5
v -0.3879907 2.24 -1.597958
v -0.437415 2.24 -2.051901
v 0.4547471 2.19 -2.047682
v 0.4346789 2.29 -1.548581
v -0.4999999 2.1 -2.089078
v -0.4363607 2.5 -2.185939
v 0.4524689 2.5 -2.173164
v 0.5 2.1 -2.089078
v 0.5 2.1 -2.089078
v 0.4524689 2.5 -2.173164
v 0.5 2.5 -2.500001
v 0.5 2.1 -2.500001
v -0.4999999 2.1 -2.500001
v -0.4999999 2.5 -2.500001
v -0.4363607 2.5 -2.185939
v -0.4999999 2.1 -2.089078
v 0.5 2.1 2.5
v 0.5 2.5 2.5
v 0.4556623 2.5 2.191087
v 0.5 2.1 2.15307
v 0.5 2.1 2.15307
v 0.4556623 2.5 2.191087
v -0.4674774 2.5 2.1976
v -0.4999999 2.1 2.15307
v -0.4999999 2.1 2.15307
v -0.4674774 2.5 2.1976
v -0.4999999 2.5 2.5
v -0.4999999 2.1 2.5
v -0.4359518 2.35 2.078375
v -0.4494202 2.35 1.662488
v 0.4177865 2.35 1.690156
v 0.4274607 2.39 2.094543
v -0.4256476 2.46 1.542677
v -0.4542241 2.42 1.173511
v 0.4105507 2.42 1.178562
v 0.4316131 2.42 1.550029
v -0.4058523 2.25 1.060643
v -0.4655133 2.25 0.6974963
v 0.4173038 2.21 0.6841553
v 0.4456135 2.21 1.105371
v -0.7 -2.14 -2.500001
v -0.7 -2.14 2.5
v -0.7 -2.5 2.5
v -0.7 -2.5 -2.500001
v -0.4999999 -1.9 -2.500001
v -0.4999999 -1.9 2.5
v -0.7 -2.14 2.5
v -0.7 -2.14 -2.500001
v -0.4117899 2.29 0.5870398
v -0.4466686 2.29 0.02096435
v 0.4510061 2.33 0.02262207
v 0.4267294 2.26 0.5914233
v 0.5 -1.9 2.5
v 0.5 -1.9 -2.500001
v 0.7 -2.14 -2.500001
v 0.7 -2.14 2.5
v 0.7 -2.14 2.5
v 0.7 -2.14 -2.500001
v 0.7 -2.5 -2.500001
v 0.7 -2.5 2.5
v -0.4221306 2.27 -0.09383545
v -0.4493043 2.24 -0.4606091
v 0.4305861 2.24 -0.4373499
v 0.4485382 2.26 -0.06419556
v -0.4111509 2.49 -0.5785681
v -0.412284 2.49 -0.9351758
v 0.4081155 2.37 -0.9194824
v 0.4140375 2.37 -0.5410852
v -0.3862462 2.37 -1.063383
v -0.4538866 2.39 -1.466083
v 0.4358423 2.41 -1.473021
v 0.4016238 2.37 -1.065063
v -0.4999999 2.1 2.15307
v -0.4359518 2.35 2.078375
v 0.4274607 2.39 2.094543
v 0.5 2.1 2.15307
v 0.5 2.1 2.15307
v 0.4274607 2.39 2.094543
v 0.4177865 2.35 1.690156
v 0.5 2.09 1.608517
v 0.4316131 2.42 1.550029
v 0.4105507 2.42 1.178562
v 0.5 2.07 1.127157
v 0.5 2.09 1.608517
v 0.4177865 2.35 1.690156
v -0.4494202 2.35 1.662488
v -0.4999999 2.09 1.608517
v -0.4999999 2.09 1.608517
v -0.4494202 2.35 1.662488
v -0.4359518 2.35 2.078375
v -0.4999999 2.1 2.15307
v -0.4999999 2.09 1.608517
v -0.4256476 2.46 1.542677
v 0.4316131 2.42 1.550029
v 0.5 2.09 1.608517
v 0.5 2.07 1.127157
v 0.4105507 2.42 1.178562
v -0.4542241 2.42 1.173511
v -0.4999999 2.07 1.127157
v -0.4999999 2.07 1.127157
v -0.4542241 2.42 1.173511
v -0.4256476 2.46 1.542677
v -0.4999999 2.09 1.608517
v -0.4999999 2.07 1.127157
v -0.4058523 2.25 1.060643
v 0.4456135 2.21 1.105371
v 0.5 2.07 1.127157
v 0.5 2.07 1.127157
v 0.4456135 2.21 1.105371
v 0.4173038 2.21 0.6841553
v 0.5 2.06 0.6446375
v 0.5 2.06 0.6446375
v 0.4173038 2.21 0.6841553
v -0.4655133 2.25 0.6974963
v -0.4999999 2.06 0.6446375
v -0.4999999 2.06 0.6446375
v -0.4655133 2.25 0.6974963
v -0.4058523 2.25 1.060643
v -0.4999999 2.07 1.127157
v -0.4999999 2.08 -0.04612427
v -0.4117899 2.29 0.5870398
v -0.4466686 2.29 0.02096435
v -0.4999999 2.06 0.6446375
v -0.4117899 2.29 0.5870398
v 0.4267294 2.26 0.5914233
v 0.5 2.06 0.6446375
v 0.5 2.06 0.6446375
v 0.4267294 2.26 0.5914233
v 0.4510061 2.33 0.02262207
v 0.5 2.08 -0.04612427
v 0.5 2.08 -0.04612427
v 0.4510061 2.33 0.02262207
v -0.4466686 2.29 0.02096435
v -0.4999999 2.08 -0.04612427
v -0.4999999 2.08 -0.04612427
v -0.4221306 2.27 -0.09383545
v 0.4485382 2.26 -0.06419556
v 0.5 2.08 -0.04612427
v 0.5 2.08 -0.04612427
v 0.4485382 2.26 -0.06419556
v 0.4305861 2.24 -0.4373499
v 0.5 2.14 -0.4953979
v 0.4140375 2.37 -0.5410852
v 0.4081155 2.37 -0.9194824
v 0.5 2.18 -0.9995666
v 0.5 2.14 -0.4953979
v 0.4305861 2.24 -0.4373499
v -0.4493043 2.24 -0.4606091
v -0.4999999 2.14 -0.4953979
v -0.4999999 2.14 -0.4953979
v -0.4493043 2.24 -0.4606091
v -0.4221306 2.27 -0.09383545
v -0.4999999 2.08 -0.04612427
v -0.4999999 2.14 -0.4953979
v -0.4111509 2.49 -0.5785681
v 0.4140375 2.37 -0.5410852
v 0.5 2.14 -0.4953979
v 0.5 2.18 -0.9995666
v 0.4081155 2.37 -0.9194824
v -0.412284 2.49 -0.9351758
v -0.4999999 2.18 -0.9995666
v -0.4999999 2.18 -0.9995666
v -0.412284 2.49 -0.9351758
v -0.4111509 2.49 -0.5785681
v -0.4999999 2.14 -0.4953979
v -0.4999999 2.18 -0.9995666
v -0.3862462 2.37 -1.063383
v 0.4016238 2.37 -1.065063
v 0.5 2.18 -0.9995666
v 0.5 2.18 -0.9995666
v 0.4016238 2.37 -1.065063
v 0.4358423 2.41 -1.473021
v 0.5 2.1 -1.525312
v 0.5 2.1 -1.525312
v 0.4358423 2.41 -1.473021
v -0.4538866 2.39 -1.466083
v -0.4999999 2.1 -1.525312
v -0.4999999 2.1 -1.525312
v -0.4538866 2.39 -1.466083
v -0.3862462 2.37 -1.063383
v -0.4999999 2.18 -0.9995666
v -0.4999999 2.1 -1.525312
v -0.3879907 2.24 -1.597958
v 0.4346789 2.29 -1.548581
v 0.5 2.1 -1.525312
v 0.5 2.1 -1.525312
v 0.4346789 2.29 -1.548581
v 0.4547471 2.19 -2.047682
v 0.5 2.1 -2.089078
v 0.5 2.1 -2.089078
v 0.4547471 2.19 -2.047682
v -0.437415 2.24 -2.051901
v -0.4999999 2.1 -2.089078
v -0.4999999 2.1 -2.089078
v -0.437415 2.24 -2.051901
v -0.3879907 2.24 -1.597958
v -0.4999999 2.1 -1.525312
vn 0 1 0
vn 0 1 0
vn 0 1 0
vn 0 1 0
vn 1 0 0
vn 1 0 0
vn 1 0 0
vn 1 0 0
vn 1 0 0
vn 1 0 0
vn 1 0 0
vn 1 0 0
vn 1 0 0
vn 1 0 0
vn 1 0 0
vn 1 0 0
vn 1 0 0
vn -1 0 0
vn -1 0 0
vn -1 0 0
vn -1 0 0
vn -1 0 0
vn -1 0 0
vn -1 0 0
vn -1 0 0
vn -1 0 0
vn -1 0 0
vn -1 0 0
vn -1 0 0
vn -1 0 0
vn 0 1 0
vn 0 1 0
vn 0 1 0
vn 0 1 0
vn 0.003264553 0.9945245 -0.104453
vn 0.003264553 0.9945245 -0.104453
vn 0.003264553 0.9945245 -0.104453
vn 0.003264553 0.9945245 -0.104453
vn -0.00659642 0.2207313 0.9753124
vn -0.00659642 0.2207313 0.9753124
vn -0.00659642 0.2207313 0.9753124
vn -0.00659642 0.2207313 0.9753124
vn 0.9957615 0.06590507 0.06415317
vn 0.9957615 0.06590507 0.06415317
vn 0.9957615 0.06590506 0.06415317
vn 0.9957615 0.06590506 0.06415317
vn -0.9921743 0.08947123 0.087093
vn -0.9921743 0.08947123 0.087093
vn -0.9921743 0.08947124 0.08709298
vn -0.9921743 0.08947124 0.08709299
vn 0.9960197 0.05840153 -0.06733523
vn 0.9960197 0.05840153 -0.06733523
vn 0.9960197 0.05840154 -0.06733523
vn 0.9960197 0.05840154 -0.06733523
vn -0.00336835 0.1025897 -0.9947181
vn -0.003368351 0.1025897 -0.9947181
vn -0.003368351 0.1025897 -0.9947181
vn -0.003368351 0.1025897 -0.9947181
vn -0.9978094 0.04334595 -0.04997664
vn -0.9978094 0.04334596 -0.04997664
vn -0.9978094 0.04334595 -0.04997664
vn -0.9978094 0.04334595 -0.04997664
vn -0.02186301 0.9986042 -0.04807896
vn -0.02186301 0.9986042 -0.04807895
vn -0.021863 0.9986042 -0.04807895
vn -0.02186301 0.9986042 -0.04807896
vn 0.02358592 0.9981805 -0.0554915
vn 0.02358592 0.9981805 -0.0554915
vn 0.02358593 0.9981805 -0.0554915
vn 0.02358592 0.9981805 -0.0554915
vn 0.04617248 0.9989201 -0.005178963
vn 0.04617248 0.9989201 -0.005178963
vn 0.04617248 0.9989201 -0.005178963
vn 0.04617248 0.9989201 -0.005178963
vn -1 0 0
vn -1 0 0
vn -1 0 0
vn -1 0 0
vn -0.7682213 0.6401843 0
vn -0.7682213 0.6401843 0
vn -0.7682213 0.6401843 0
vn -0.7682213 0.6401843 0
vn -0.005963085 0.9980819 0.06161796
vn -0.005963084 0.9980819 0.06161797
vn -0.005963085 0.9980819 0.06161796
vn -0.005963084 0.9980819 0.06161796
vn 0.7682215 0.6401842 0
vn 0.7682215 0.6401842 0
vn 0.7682215 0.6401842 0
vn 0.7682215 0.6401842 0
vn 1 0 0
vn 1 0 0
vn 1 0 0
vn 1 0 0
vn 0.007750607 0.9976628 -0.067889
vn 0.007750607 0.9976628 -0.067889
vn 0.007750605 0.9976628 -0.067889
vn 0.007750607 0.9976628 -0.067889
vn 0.1443611 0.9895242 -0.001386043
vn 0.1443611 0.9895242 -0.001386043
vn 0.1443611 0.9895242 -0.001386043
vn 0.1443611 0.9895242 -0.001386043
vn -0.01150661 0.9971711 0.07427938
vn -0.01150661 0.9971711 0.07427938
vn -0.01150661 0.9971711 0.07427938
vn -0.01150661 0.9971711 0.07427938
vn -0.01356068 0.2393019 0.9708505
vn -0.01356068 0.2393019 0.9708505
vn -0.01356068 0.2393019 0.9708505
vn -0.01356068 0.2393019 0.9708505
vn 0.9620762 0.2717121 -0.02412479
vn 0.9620762 0.2717121 -0.02412479
vn 0.9620762 0.2717121 -0.02412479
vn 0.9620762 0.2717121 -0.02412479
vn 0.9737516 0.2257141 -0.02934235
vn 0.9737516 0.2257141 -0.02934235
vn 0.9737516 0.2257141 -0.02934235
vn 0.01433381 0.2531396 -0.9673236
vn 0.01433381 0.2531396 -0.9673236
vn 0.01433381 0.2531396 -0.9673236
vn 0.01433381 0.2531396 -0.9673236
vn -0.9754972 0.2197163 0.01139189
vn -0.9754972 0.2197164 0.01139189
vn -0.9754972 0.2197163 0.01139189
vn -0.9754972 0.2197163 0.01139189
vn -0.0001313251 0.1748747 0.9845906
vn -0.0001313251 0.1748747 0.9845906
vn -0.0001313251 0.1748747 0.9845906
vn -0.0001313251 0.1748747 0.9845906
vn 0.002682713 0.1384768 -0.990362
vn 0.002682713 0.1384768 -0.990362
vn 0.002682713 0.1384768 -0.990362
vn 0.002682713 0.1384768 -0.990362
vn -0.9860432 0.1650975 0.02148282
vn -0.9860432 0.1650975 0.02148282
vn -0.9860432 0.1650975 0.02148282
vn -0.9860432 0.1650974 0.02148282
vn -0.01748125 0.2679726 0.9632679
vn -0.01748125 0.2679725 0.9632679
vn -0.01748125 0.2679726 0.9632679
vn -0.01748125 0.2679726 0.9632679
vn 0.9028072 0.4287755 -0.03302519
vn 0.9028072 0.4287755 -0.03302519
vn 0.9028072 0.4287755 -0.03302518
vn 0.9028072 0.4287755 -0.03302519
vn -0.001271508 0.2620233 -0.9650607
vn -0.001271508 0.2620233 -0.9650607
vn -0.001271508 0.2620233 -0.9650607
vn -0.001271508 0.2620233 -0.9650607
vn -0.9419771 0.3297967 0.06255574
vn -0.9419771 0.3297967 0.06255573
vn -0.9419771 0.3297967 0.06255574
vn -0.9419771 0.3297967 0.06255572
vn -0.9516882 0.3054695 0.03127136
vn -0.9516882 0.3054695 0.03127136
vn -0.9516882 0.3054695 0.03127136
vn 0.001762153 0.2494908 0.9683756
vn 0.001762153 0.2494908 0.9683756
vn 0.001762153 0.2494908 0.9683756
vn 0.001762153 0.2494908 0.9683756
vn 0.9646707 0.2608153 0.03722907
vn 0.9646707 0.2608153 0.03722907
vn 0.9646707 0.2608153 0.03722907
vn 0.9646707 0.2608153 0.03722908
vn -0.005132589 0.2832447 -0.959034
vn -0.005132589 0.2832447 -0.959034
vn -0.005132589 0.2832447 -0.959034
vn -0.005132589 0.2832447 -0.9590339
vn -0.0146543 0.1760403 0.9842739
vn -0.0146543 0.1760403 0.9842739
vn -0.0146543 0.1760403 0.9842739
vn -0.0146543 0.1760403 0.9842739
vn 0.9180623 0.3964353 -0.0007584017
vn 0.9180623 0.3964353 -0.0007584018
vn 0.9180623 0.3964353 -0.0007584017
vn 0.9180623 0.3964352 -0.0007584017
vn 0.9211215 0.3891065 0.01145458
vn 0.9211215 0.3891065 0.01145457
vn 0.9211215 0.3891066 0.01145458
vn 0.01121688 0.4218723 -0.9065859
vn 0.01121688 0.4218723 -0.9065859
vn 0.01121688 0.4218723 -0.9065859
vn 0.01121688 0.4218723 -0.9065859
vn -0.9125003 0.4065567 0.0453315
vn -0.9125003 0.4065567 0.0453315
vn -0.9125003 0.4065566 0.0453315
vn -0.9125003 0.4065567 0.0453315
vn -0.005786548 0.2169039 0.9761758
vn -0.005786547 0.2169039 0.9761758
vn -0.005786549 0.2169039 0.9761758
vn -0.005786548 0.2169039 0.9761758
vn 0.02658445 0.2777006 -0.9602997
vn 0.02658445 0.2777006 -0.9602998
vn 0.02658445 0.2777006 -0.9602998
vn 0.02658445 0.2777006 -0.9602997
vn -0.9658487 0.2587649 0.01329615
vn -0.9658487 0.2587649 0.01329615
vn -0.9658487 0.2587649 0.01329615
vn -0.9658487 0.2587649 0.01329615
vn 0.0008900938 0.3221219 0.9466978
vn 0.0008900937 0.3221219 0.9466977
vn 0.0008900938 0.3221219 0.9466978
vn 0.0008900937 0.3221219 0.9466977
vn 0.9506261 0.3095877 0.02157591
vn 0.9506261 0.3095877 0.02157591
vn 0.9506261 0.3095877 0.02157591
vn 0.9506261 0.3095877 0.02157591
vn -0.005542228 0.1825745 -0.9831765
vn -0.005542229 0.1825745 -0.9831765
vn -0.005542228 0.1825745 -0.9831765
vn -0.005542228 0.1825745 -0.9831765
vn -0.9475014 0.3160357 0.04860517
vn -0.9475014 0.3160357 0.04860518
vn -0.9475014 0.3160356 0.04860518
vn -0.9475014 0.3160356 0.04860517
vn -0.0337364 0.2833389 0.9584263
vn -0.0337364 0.2833389 0.9584263
vn -0.0337364 0.2833389 0.9584263
vn -0.0337364 0.2833389 0.9584263
vn 0.9295867 0.3682072 -0.01709119
vn 0.9295867 0.3682072 -0.01709119
vn 0.9295867 0.3682072 -0.01709119
vn 0.9295867 0.3682072 -0.01709118
vn 0.01063352 0.3225465 -0.9464939
vn 0.01063352 0.3225465 -0.9464939
vn 0.01063352 0.3225465 -0.9464939
vn 0.01063352 0.3225465 -0.9464939
vn -0.8454916 0.5324078 0.04106073
vn -0.8454916 0.5324077 0.04106073
vn -0.8454916 0.5324078 0.04106073
vn -0.8454916 0.5324078 0.04106073
vt 0.06281257 0.887727
vt 2.384186E-07 0.8800493
vt 2.384186E-07 1.000652
vt 0.06536746 0.9949223
vt 0.9155293 0.9199999
vt 0.9977138 0.9199999
vt 0.9977138 0.12
vt 0.802776 0.9199999
vt 0.6976268 0.9359996
vt 0.5967932 0.9279997
vt 0.5069385 0.9159997
vt 0.3687861 0.9119997
vt -0.002286179 0.1199999
vt 0.2722821 0.9139997
vt 0.1760104 0.9179997
vt 0.06709959 0.9199998
vt -0.002286123 0.9199998
vt -0.003612731 0.1199999
vt -0.003612749 0.9199997
vt 0.07857157 0.9199997
vt 0.1913248 0.9199997
vt 0.2964741 0.9359997
vt 0.3973076 0.9279997
vt 0.4871624 0.9159997
vt 0.9963872 0.12
vt 0.6253148 0.9119998
vt 0.7218188 0.9139997
vt 0.8180905 0.9179998
vt 0.9270012 0.9199997
vt 0.9963871 0.9199997
vt 1 0.8800886
vt 0.9395201 0.8840085
vt 0.9382176 0.9953415
vt 1 1.000691
vt 0.1800768 0.8938851
vt 0.08928847 0.8879209
vt 0.09006834 0.9955796
vt 0.190016 0.9930401
vt 0.08167434 0.8805448
vt 0.06281257 0.887727
vt 0.06536746 0.9949223
vt 0.08167434 1.001148
vt 0.9155293 0.9199999
vt 0.9323463 0.9999999
vt 0.9977138 0.9999999
vt 0.9977138 0.9199999
vt -0.003612749 0.9199997
vt -0.003612749 0.9999997
vt 0.0591997 0.9999997
vt 0.07857157 0.9199997
vt -0.002286123 0.9199998
vt -0.002286242 0.9999998
vt 0.05949624 0.9999998
vt 0.06709959 0.9199998
vt 0.9301038 1.001181
vt 0.9382176 0.9953415
vt 0.9395201 0.8840085
vt 0.9301038 0.8805783
vt 0.9270012 0.9199997
vt 0.9359071 0.9999998
vt 0.9963871 0.9999998
vt 0.9963871 0.9199997
vt 0.9154837 0.8879943
vt 0.8323061 0.8863665
vt 0.8378398 0.9909544
vt 0.9187684 0.9920751
vt 0.8084846 0.8890973
vt 0.7346003 0.8856974
vt 0.7356105 0.9899915
vt 0.8099039 0.9925346
vt 0.7118099 0.8917395
vt 0.6391804 0.8845413
vt 0.6364613 0.9910605
vt 0.7207043 0.9944782
vt -0.003612724 0.07199979
vt 0.9963872 0.07200003
vt 0.9963872 2.838323E-08
vt -0.003612762 -2.726302E-08
vt -0.003612731 0.1199999
vt 0.9963872 0.12
vt 0.9963872 0.07200003
vt -0.003612724 0.07199979
vt 0.6171403 0.8909703
vt 0.5039251 0.8867595
vt 0.5043077 0.9949723
vt 0.6179786 0.9921349
vt -0.002286179 0.1199999
vt 0.9977138 0.12
vt 0.9977138 0.07199997
vt -0.002286163 0.07199993
vt -0.002286163 0.07199993
vt 0.9977138 0.07199997
vt 0.9977138 7.0055E-09
vt -0.002286142 -5.91086E-08
vt 0.4809396 0.8897427
vt 0.4075465 0.8864994
vt 0.4121983 0.9926167
vt 0.4868548 0.99476
vt 0.3842738 0.8907921
vt 0.3129523 0.8906527
vt 0.315938 0.9897429
vt 0.3916173 0.9904602
vt 0.2871578 0.8939396
vt 0.2066433 0.8857543
vt 0.2052813 0.9930334
vt 0.2868216 0.988959
vt 0.9301038 0.8805783
vt 0.9154837 0.8879943
vt 0.9187684 0.9920751
vt 0.9301038 1.001181
vt 0.06709959 0.9199998
vt 0.07880504 0.9779997
vt 0.1596823 0.9699998
vt 0.1760104 0.9179997
vt 0.1877077 0.9839998
vt 0.2620012 0.9839998
vt 0.2722821 0.9139997
vt 0.8211801 1.001189
vt 0.8378398 0.9909544
vt 0.8323061 0.8863665
vt 0.8211801 0.8805861
vt 0.8180905 0.9179998
vt 0.8288848 0.9699997
vt 0.9120623 0.9699997
vt 0.9270012 0.9199997
vt 0.8211801 0.8805861
vt 0.8084846 0.8890973
vt 0.8099039 0.9925346
vt 0.8211801 1.001189
vt 0.7248828 1.00121
vt 0.7356105 0.9899915
vt 0.7346003 0.8856974
vt 0.7248828 0.880607
vt 0.7218188 0.9139997
vt 0.7310894 0.9839996
vt 0.8049228 0.9919998
vt 0.8180905 0.9179998
vt 0.7248828 0.880607
vt 0.7118099 0.8917395
vt 0.7207043 0.9944782
vt 0.7248828 1.00121
vt 0.2722821 0.9139997
vt 0.2766396 0.9419996
vt 0.3608827 0.9419997
vt 0.3687861 0.9119997
vt 0.6283662 1.001218
vt 0.6364613 0.9910605
vt 0.6391804 0.8845413
vt 0.6283662 0.8806156
vt 0.6253148 0.9119998
vt 0.6358865 0.9499997
vt 0.7085159 0.9499997
vt 0.7218188 0.9139997
vt 0.4871624 0.9159997
vt 0.6137952 0.9579997
vt 0.5005801 0.9579998
vt 0.6283662 0.8806156
vt 0.6171403 0.8909703
vt 0.6179786 0.9921349
vt 0.6283662 1.001218
vt 0.3687861 0.9119997
vt 0.3794289 0.9519997
vt 0.4931891 0.9659997
vt 0.5069385 0.9159997
vt 0.4902394 1.001188
vt 0.5043077 0.9949723
vt 0.5039251 0.8867595
vt 0.4902394 0.8805856
vt 0.4902394 0.8805856
vt 0.4809396 0.8897427
vt 0.4868548 0.99476
vt 0.4902394 1.001188
vt 0.5069385 0.9159997
vt 0.5105528 0.9519997
vt 0.5851835 0.9479998
vt 0.5967932 0.9279997
vt 0.6059306 0.9739997
vt 0.6816099 0.9739997
vt 0.6976268 0.9359996
vt 0.4004612 1.001111
vt 0.4121983 0.9926167
vt 0.4075465 0.8864994
vt 0.4004612 0.8805082
vt 0.3973076 0.9279997
vt 0.4042655 0.9479997
vt 0.47762 0.9539996
vt 0.4871624 0.9159997
vt 0.4004612 0.8805082
vt 0.3842738 0.8907921
vt 0.3916173 0.9904602
vt 0.4004612 1.001111
vt 0.2996786 1.001058
vt 0.315938 0.9897429
vt 0.3129523 0.8906527
vt 0.2996786 0.8804549
vt 0.2964741 0.9359997
vt 0.3093523 0.9979995
vt 0.3806738 0.9979995
vt 0.3973076 0.9279997
vt 0.2996786 0.8804549
vt 0.2871578 0.8939396
vt 0.2868216 0.988959
vt 0.2996786 1.001058
vt 0.6976268 0.9359996
vt 0.710726 0.9739999
vt 0.7923179 0.9820001
vt 0.802776 0.9199999
vt 0.1944275 1.001152
vt 0.2052813 0.9930334
vt 0.2066433 0.8857543
vt 0.1944275 0.8805493
vt 0.1913248 0.9199997
vt 0.2031709 0.9779997
vt 0.2837107 0.9739996
vt 0.2964741 0.9359997
vt 0.1944275 0.8805493
vt 0.1800768 0.8938851
vt 0.190016 0.9930401
vt 0.1944275 1.001152
vt 0.802776 0.9199999
vt 0.8074299 0.9579998
vt 0.9072498 0.9379998
vt 0.9155293 0.9199999
vt 0.08167434 1.001148
vt 0.09006834 0.9955796
vt 0.08928847 0.8879209
vt 0.08167434 0.8805448
vt 0.07857157 0.9199997
vt 0.08600724 0.9479997
vt 0.1767957 0.9479997
vt 0.1913248 0.9199997
usemtl RockTilesDark_Material
f 3/3/3 2/2/2 1/1/1
f 4/4/4 3/3/3 1/1/1
f 7/7/7 6/6/6 5/5/5
f 7/7/7 5/5/5 8/8/8
f 7/7/7 8/8/8 9/9/9
f 7/7/7 9/9/9 10/10/10
f 7/7/7 10/10/10 11/11/11
f 7/7/7 11/11/11 12/12/12
f 13/13/13 7/7/7 12/12/12
f 13/13/13 12/12/12 14/14/14
f 13/13/13 14/14/14 15/15/15
f 13/13/13 15/15/15 16/16/16
f 16/16/16 17/17/17 13/13/13
f 20/20/20 19/19/19 18/18/18
f 18/18/18 21/21/21 20/20/20
f 18/18/18 22/22/22 21/21/21
f 18/18/18 23/23/23 22/22/22
f 18/18/18 24/24/24 23/23/23
f 18/18/18 25/25/25 24/24/24
f 25/25/25 26/26/26 24/24/24
f 25/25/25 27/27/27 26/26/26
f 25/25/25 28/28/28 27/27/27
f 25/25/25 29/29/29 28/28/28
f 25/25/25 30/30/30 29/29/29
f 33/33/33 32/32/32 31/31/31
f 34/34/34 33/33/33 31/31/31
f 37/37/37 36/36/36 35/35/35
f 38/38/38 37/37/37 35/35/35
f 41/41/41 40/40/40 39/39/39
f 42/42/42 41/41/41 39/39/39
f 45/45/45 44/44/44 43/43/43
f 46/46/46 45/45/45 43/43/43
f 49/49/49 48/48/48 47/47/47
f 50/50/50 49/49/49 47/47/47
f 53/53/53 52/52/52 51/51/51
f 54/54/54 53/53/53 51/51/51
f 57/57/57 56/56/56 55/55/55
f 58/58/58 57/57/57 55/55/55
f 61/61/61 60/60/60 59/59/59
f 62/62/62 61/61/61 59/59/59
f 65/65/65 64/64/64 63/63/63
f 66/66/66 65/65/65 63/63/63
f 69/69/69 68/68/68 67/67/67
f 70/70/70 69/69/69 67/67/67
f 73/73/73 72/72/72 71/71/71
f 74/74/74 73/73/73 71/71/71
f 77/77/77 76/76/76 75/75/75
f 78/78/78 77/77/77 75/75/75
f 81/81/81 80/80/80 79/79/79
f 82/82/82 81/81/81 79/79/79
f 85/85/85 84/84/84 83/83/83
f 86/86/86 85/85/85 83/83/83
f 89/89/89 88/88/88 87/87/87
f 90/90/90 89/89/89 87/87/87
f 93/93/93 92/92/92 91/91/91
f 94/94/94 93/93/93 91/91/91
f 97/97/97 96/96/96 95/95/95
f 98/98/98 97/97/97 95/95/95
f 101/101/101 100/100/100 99/99/99
f 102/102/102 101/101/101 99/99/99
f 105/105/105 104/104/104 103/103/103
f 106/106/106 105/105/105 103/103/103
f 109/109/109 108/108/108 107/107/107
f 110/110/110 109/109/109 107/107/107
f 113/113/113 112/112/112 111/111/111
f 114/114/114 113/113/113 111/111/111
f 116/116/116 115/115/115 114/114/114
f 117/117/117 116/116/116 114/114/114
f 120/120/120 119/119/119 118/118/118
f 121/121/121 120/120/120 118/118/118
f 124/124/124 123/123/123 122/122/122
f 125/125/125 124/124/124 122/122/122
f 128/128/128 127/127/127 126/126/126
f 129/129/129 128/128/128 126/126/126
f 132/132/132 131/131/131 130/130/130
f 133/133/133 132/132/132 130/130/130
f 136/136/136 135/135/135 134/134/134
f 137/137/137 136/136/136 134/134/134
f 140/140/140 139/139/139 138/138/138
f 141/141/141 140/140/140 138/138/138
f 144/144/144 143/143/143 142/142/142
f 145/145/145 144/144/144 142/142/142
f 148/148/148 147/147/147 146/146/146
f 149/149/149 148/148/148 146/146/146
f 152/152/152 151/151/151 150/150/150
f 153/153/153 152/152/152 150/150/150
f 150/150/150 155/155/155 154/154/154
f 155/155/155 156/156/156 154/154/154
f 159/159/159 158/158/158 157/157/157
f 160/160/160 159/159/159 157/157/157
f 163/163/163 162/162/162 161/161/161
f 164/164/164 163/163/163 161/161/161
f 167/167/167 166/166/166 165/165/165
f 168/168/168 167/167/167 165/165/165
f 171/171/171 170/170/170 169/169/169
f 172/172/172 171/171/171 169/169/169
f 175/175/175 174/174/174 173/173/173
f 176/176/176 175/175/175 173/173/173
f 178/178/178 177/177/177 176/176/176
f 179/179/179 178/178/178 176/176/176
f 182/182/182 181/181/181 180/180/180
f 183/183/183 182/182/182 180/180/180
f 186/186/186 185/185/185 184/184/184
f 187/187/187 186/186/186 184/184/184
f 190/190/190 189/189/189 188/188/188
f 191/191/191 190/190/190 188/188/188
f 194/194/194 193/193/193 192/192/192
f 195/195/195 194/194/194 192/192/192
f 198/198/198 197/197/197 196/196/196
f 199/199/199 198/198/198 196/196/196
f 202/202/202 201/201/201 200/200/200
f 203/203/203 202/202/202 200/200/200
f 206/206/206 205/205/205 204/204/204
f 207/207/207 206/206/206 204/204/204
f 210/210/210 209/209/209 208/208/208
f 211/211/211 210/210/210 208/208/208
f 214/214/214 213/213/213 212/212/212
f 215/215/215 214/214/214 212/212/212
f 218/218/218 217/217/217 216/216/216
f 219/219/219 218/218/218 216/216/216
f 222/222/222 221/221/221 220/220/220
f 223/223/223 222/222/222 220/220/220
f 226/226/226 225/225/225 224/224/224
f 227/227/227 226/226/226 224/224/224
f 230/230/230 229/229/229 228/228/228
f 231/231/231 230/230/230 228/228/228
